<svg xmlns="http://www.w3.org/2000/svg" xmlns:xlink="http://www.w3.org/1999/xlink" width="1399" zoomAndPan="magnify" viewBox="101 536 1399 455" height="455" preserveAspectRatio="xMidYMid meet" version="1.0"><defs><g/><clipPath id="f35593f722"><rect x="0" width="1399" y="0" height="455"/></clipPath></defs><g transform="matrix(1, 0, 0, 1, 101, 536)"><g clip-path="url(#f35593f722)"><g fill="#1f1a3d" fill-opacity="1"><g transform="translate(1.261781, 341.332324)"><g><path d="M 73.90625 3.234375 C 55.320312 3.234375 40.300781 -1.785156 28.84375 -11.828125 C 17.394531 -21.878906 11.238281 -35.765625 10.375 -53.484375 L 34.6875 -53.484375 C 35.550781 -42.242188 39.332031 -33.757812 46.03125 -28.03125 C 52.726562 -22.3125 62.019531 -19.453125 73.90625 -19.453125 C 83.84375 -19.453125 92.050781 -21.503906 98.53125 -25.609375 C 105.019531 -29.710938 108.265625 -35.546875 108.265625 -43.109375 C 108.265625 -48.941406 106.535156 -53.640625 103.078125 -57.203125 C 99.617188 -60.773438 95.347656 -63.425781 90.265625 -65.15625 C 85.191406 -66.882812 78.007812 -68.828125 68.71875 -70.984375 C 57.050781 -73.578125 47.757812 -76.222656 40.84375 -78.921875 C 33.925781 -81.628906 27.984375 -86.007812 23.015625 -92.0625 C 18.046875 -98.113281 15.5625 -106.328125 15.5625 -116.703125 C 15.5625 -125.335938 18.097656 -133.113281 23.171875 -140.03125 C 28.253906 -146.945312 35.117188 -152.347656 43.765625 -156.234375 C 52.410156 -160.128906 61.914062 -162.078125 72.28125 -162.078125 C 88.707031 -162.078125 102.429688 -157.160156 113.453125 -147.328125 C 124.472656 -137.492188 130.523438 -124.039062 131.609375 -106.96875 L 107.296875 -106.96875 C 106.210938 -117.769531 102.484375 -125.875 96.109375 -131.28125 C 89.734375 -136.6875 81.46875 -139.390625 71.3125 -139.390625 C 62.664062 -139.390625 55.425781 -137.390625 49.59375 -133.390625 C 43.757812 -129.390625 40.84375 -123.828125 40.84375 -116.703125 C 40.84375 -111.515625 42.515625 -107.296875 45.859375 -104.046875 C 49.210938 -100.804688 53.320312 -98.320312 58.1875 -96.59375 C 63.050781 -94.863281 69.910156 -92.921875 78.765625 -90.765625 C 90.441406 -88.171875 99.898438 -85.414062 107.140625 -82.5 C 114.378906 -79.582031 120.585938 -74.988281 125.765625 -68.71875 C 130.953125 -62.457031 133.546875 -53.921875 133.546875 -43.109375 C 133.546875 -29.273438 127.816406 -18.09375 116.359375 -9.5625 C 104.910156 -1.03125 90.757812 3.234375 73.90625 3.234375 Z M 73.90625 3.234375 "/></g></g></g><g fill="#1f1a3d" fill-opacity="1"><g transform="translate(225.900084, 341.332324)"><g><path d="M 81.6875 -38.578125 L 134.53125 -158.84375 L 160.453125 -158.84375 L 59.96875 64.828125 L 34.03125 64.828125 L 68.078125 -11.34375 L -1.625 -158.84375 L 25.609375 -158.84375 Z M 81.6875 -38.578125 "/></g></g></g><g fill="#1f1a3d" fill-opacity="1"><g transform="translate(465.449142, 341.332324)"><g><path d="M 94 -162.078125 C 106.75 -162.078125 118.039062 -158.992188 127.875 -152.828125 C 137.707031 -146.671875 145.328125 -138.296875 150.734375 -127.703125 C 156.140625 -117.117188 158.84375 -105.347656 158.84375 -92.390625 L 158.84375 0 L 134.53125 0 L 134.53125 -92.390625 C 134.53125 -106.429688 130.640625 -117.773438 122.859375 -126.421875 C 115.078125 -135.066406 104.378906 -139.390625 90.765625 -139.390625 C 82.117188 -139.390625 74.226562 -137.390625 67.09375 -133.390625 C 59.96875 -129.390625 54.296875 -123.820312 50.078125 -116.6875 C 45.867188 -109.5625 43.765625 -101.460938 43.765625 -92.390625 L 43.765625 0 L 19.453125 0 L 19.453125 -158.84375 L 43.765625 -158.84375 L 43.765625 -137.765625 C 50.242188 -145.765625 57.75 -151.816406 66.28125 -155.921875 C 74.820312 -160.023438 84.0625 -162.078125 94 -162.078125 Z M 94 -162.078125 "/></g></g></g><g fill="#1f1a3d" fill-opacity="1"><g transform="translate(721.205642, 341.332324)"><g><path d="M 147.8125 -158.84375 L 172.125 -158.84375 L 172.125 0 L 147.8125 0 L 147.8125 -24.3125 C 141.113281 -15.882812 132.6875 -9.1875 122.53125 -4.21875 C 112.375 0.75 101.351562 3.234375 89.46875 3.234375 C 74.988281 3.234375 61.476562 -0.382812 48.9375 -7.625 C 36.40625 -14.863281 26.46875 -24.800781 19.125 -37.4375 C 11.78125 -50.082031 8.109375 -64.078125 8.109375 -79.421875 C 8.109375 -94.765625 11.78125 -108.753906 19.125 -121.390625 C 26.46875 -134.035156 36.40625 -143.976562 48.9375 -151.21875 C 61.476562 -158.457031 74.988281 -162.078125 89.46875 -162.078125 C 101.351562 -162.078125 112.375 -159.59375 122.53125 -154.625 C 132.6875 -149.65625 141.113281 -142.957031 147.8125 -134.53125 Z M 91.40625 -19.453125 C 102 -19.453125 111.722656 -22.097656 120.578125 -27.390625 C 129.441406 -32.679688 136.46875 -39.863281 141.65625 -48.9375 C 146.84375 -58.019531 149.4375 -68.179688 149.4375 -79.421875 C 149.4375 -90.660156 146.84375 -100.816406 141.65625 -109.890625 C 136.46875 -118.960938 129.441406 -126.144531 120.578125 -131.4375 C 111.722656 -136.738281 102 -139.390625 91.40625 -139.390625 C 80.820312 -139.390625 71.097656 -136.738281 62.234375 -131.4375 C 53.378906 -126.144531 46.359375 -118.960938 41.171875 -109.890625 C 35.984375 -100.816406 33.390625 -90.660156 33.390625 -79.421875 C 33.390625 -68.179688 35.984375 -58.019531 41.171875 -48.9375 C 46.359375 -39.863281 53.378906 -32.679688 62.234375 -27.390625 C 71.097656 -22.097656 80.820312 -19.453125 91.40625 -19.453125 Z M 91.40625 -19.453125 "/></g></g></g><g fill="#1f1a3d" fill-opacity="1"><g transform="translate(991.872847, 341.332324)"><g><path d="M 106.96875 -160.453125 L 106.96875 -137.765625 L 90.765625 -137.765625 C 82.117188 -137.765625 74.226562 -135.765625 67.09375 -131.765625 C 59.96875 -127.765625 54.296875 -122.195312 50.078125 -115.0625 C 45.867188 -107.9375 43.765625 -99.835938 43.765625 -90.765625 L 43.765625 0 L 19.453125 0 L 19.453125 -158.84375 L 43.765625 -158.84375 L 43.765625 -136.140625 C 50.242188 -144.140625 57.75 -150.191406 66.28125 -154.296875 C 74.820312 -158.398438 84.0625 -160.453125 94 -160.453125 Z M 106.96875 -160.453125 "/></g></g></g><g fill="#1f1a3d" fill-opacity="1"><g transform="translate(1176.316873, 341.332324)"><g><path d="M 89.46875 3.234375 C 74.769531 3.234375 61.207031 -0.382812 48.78125 -7.625 C 36.351562 -14.863281 26.46875 -24.800781 19.125 -37.4375 C 11.78125 -50.082031 8.109375 -64.078125 8.109375 -79.421875 C 8.109375 -94.765625 11.78125 -108.753906 19.125 -121.390625 C 26.46875 -134.035156 36.351562 -143.976562 48.78125 -151.21875 C 61.207031 -158.457031 74.769531 -162.078125 89.46875 -162.078125 C 107.40625 -162.078125 123.394531 -156.835938 137.4375 -146.359375 C 151.488281 -135.878906 161.109375 -121.128906 166.296875 -102.109375 L 141.015625 -102.109375 C 136.691406 -113.992188 129.878906 -123.175781 120.578125 -129.65625 C 111.285156 -136.144531 100.914062 -139.390625 89.46875 -139.390625 C 79.3125 -139.390625 69.910156 -136.738281 61.265625 -131.4375 C 52.617188 -126.144531 45.8125 -118.960938 40.84375 -109.890625 C 35.875 -100.816406 33.390625 -90.660156 33.390625 -79.421875 C 33.390625 -68.179688 35.875 -58.019531 40.84375 -48.9375 C 45.8125 -39.863281 52.617188 -32.679688 61.265625 -27.390625 C 69.910156 -22.097656 79.3125 -19.453125 89.46875 -19.453125 C 100.914062 -19.453125 111.285156 -22.691406 120.578125 -29.171875 C 129.878906 -35.660156 136.691406 -44.847656 141.015625 -56.734375 L 166.296875 -56.734375 C 161.109375 -37.710938 151.488281 -22.960938 137.4375 -12.484375 C 123.394531 -2.003906 107.40625 3.234375 89.46875 3.234375 Z M 89.46875 3.234375 "/></g></g></g></g></g></svg>