<?xml version="1.0" encoding="UTF-8"?>
<svg xmlns="http://www.w3.org/2000/svg" viewBox="0 0 400 280" width="400" height="280">
  <rect width="400" height="280" fill="#13141E"></rect>
  <g stroke="#0066CC" stroke-width="0.6" opacity="0.6" fill="none">
    <path d="M 30 60 L 130 110 L 230 40 L 340 100"></path>
    <path d="M 30 140 L 130 110 L 230 180 L 340 130"></path>
    <path d="M 30 220 L 130 180 L 230 180 L 340 210"></path>
    <path d="M 130 110 L 230 180"></path>
  </g>
  <g fill="#00FFFF">
    <circle cx="30" cy="60" r="3"></circle><circle cx="130" cy="110" r="4"></circle><circle cx="230" cy="40" r="3"></circle><circle cx="340" cy="100" r="3"></circle>
    <circle cx="30" cy="140" r="2.5"></circle><circle cx="230" cy="180" r="4"></circle><circle cx="340" cy="130" r="2.5"></circle>
    <circle cx="30" cy="220" r="3"></circle><circle cx="130" cy="180" r="2.5"></circle><circle cx="340" cy="210" r="3"></circle>
  </g>
</svg>